<?xml version="1.0" standalone="no"?><!DOCTYPE svg PUBLIC "-//W3C//DTD SVG 1.1//EN" "http://www.w3.org/Graphics/SVG/1.1/DTD/svg11.dtd"><svg class="icon" width="128px" height="128.00px" viewBox="0 0 1024 1024" version="1.1" xmlns="http://www.w3.org/2000/svg"><path d="M149.350516 85.332481h725.298968c35.343973 0 63.996546 28.652574 63.996546 63.996546v725.298967c0 35.344996-28.652574 63.996546-63.996546 63.996547h-725.298968c-35.344996 0-63.996546-28.652574-63.996546-63.996547v-725.298967c0-35.343973 28.652574-63.996546 63.996546-63.996546z m301.018822 489.034962L329.694931 453.694059c-8.330736-8.330736-21.837354-8.330736-30.16809 0l-30.16809 30.16809c-8.330736 8.330736-8.330736 21.837354 0 30.16809l165.92603 165.927054a21.266349 21.266349 0 0 0 15.084557 6.248308c5.459339 0 10.918677-2.082428 15.084556-6.248308l331.853084-331.853084c8.330736-8.330736 8.330736-21.837354 0-30.16809l-30.16809-30.169113c-8.330736-8.330736-21.837354-8.330736-30.16809 0L450.369338 574.367443z" fill="#707070" /></svg>